<?xml version="1.0" encoding="UTF-8"?>
<svg xmlns="http://www.w3.org/2000/svg" onmouseup="{ if(window.parent.document.onmouseup) window.parent.document.onmouseup(arguments[0]);}" viewBox="0 0 105.12 115.34" xmlns:xlink="http://www.w3.org/1999/xlink"><defs><style>.cls-1,.cls-3,.cls-4,.cls-6{fill:none;}.cls-2{fill:#bcbec0;}.cls-2,.cls-3,.cls-6{stroke:#231f20;}.cls-2,.cls-3,.cls-4,.cls-6{stroke-miterlimit:10;}.cls-3,.cls-4{stroke-width:3px;}.cls-4{stroke:#f7941d;stroke-linecap:round;}.cls-5{clip-path:url(#clip-path);}.cls-6{stroke-width:0.11px;}.cls-7{fill:#00aeef;}</style><clipPath id="clip-path"><rect data-cppathid="10000" height="31.34" width="7.32" y="41.85" x="57.52" class="cls-1"/></clipPath></defs><g data-name="Layer 2" id="Layer_2"><g data-name="Layer 1" id="Layer_1-2"><polygon data-cppathid="10001" points="58.07 57.94 58.07 28.63 71 13.98 71 1.05 81.35 1.05 91.69 1.05 91.69 13.98 104.62 28.63 104.62 57.94 104.62 87.25 91.69 101.91 91.69 114.84 81.35 114.84 71 114.84 71 101.91 58.07 87.25 58.07 57.94" class="cls-2"/><polygon data-cppathid="10002" points="96.87 19.47 100.69 15.65 102.33 17.56 98.51 21.38 96.87 19.47" class="cls-2"/><polyline data-cppathid="10003" points="87.52 1.05 74.05 14.89 69.19 20.16 69.19 95.13 74.34 100.47 87.52 113.99" class="cls-3"/><polyline data-cppathid="10004" points="1.5 57.94 65.98 57.94 65.98 31.64 65.98 58.54 65.98 85.44" class="cls-4"/><g data-name="return spring" id="return_spring"><g class="cls-5"><g class="cls-5"><path data-cppathid="10005" d="M57.53,42c.26.56.26,31.5.52,31.1s.26-29.45.53-28.92.26,27.73.52,27.35.26-25.79.52-25.29.26,24.19.52,23.84.26-22.39.52-21.92.26,20.89.52,20.57.26-19.21.52-18.77.27,17.82.53,17.52.26-16.26.52-15.86.26,15,.52,14.73.26-13.56.52-13.19.26,12.4.52,12.15.27-11.08.53-10.74" class="cls-6"/></g></g></g><polygon data-cppathid="10006" points="99.6 29.67 81.35 12.86 70.91 21.21 70.57 94.26 80.39 102.88 99.6 88.17 99.6 29.67" class="cls-7"/></g></g></svg>