<?xml version="1.0" encoding="UTF-8"?>
<svg xmlns="http://www.w3.org/2000/svg" onmouseup="{ if(window.parent.document.onmouseup) window.parent.document.onmouseup(arguments[0]);}" viewBox="0 0 152.74 115.77" xmlns:xlink="http://www.w3.org/1999/xlink"><defs><style>.cls-1,.cls-3,.cls-4,.cls-6,.cls-9{fill:none;}.cls-2{fill:#bcbec0;}.cls-2,.cls-3,.cls-6,.cls-9{stroke:#231f20;}.cls-2,.cls-3,.cls-4,.cls-6,.cls-9{stroke-miterlimit:10;}.cls-3,.cls-4{stroke-width:3px;}.cls-4{stroke:#f7941d;stroke-linecap:round;}.cls-5{clip-path:url(#clip-path);}.cls-6{stroke-width:0.11px;}.cls-7{fill:#00aeef;}.cls-8{clip-path:url(#clip-path-3);}.cls-9{stroke-width:5px;}</style><clipPath id="clip-path"><rect data-cppathid="10000" height="31.34" width="7.32" y="42.27" x="57.52" class="cls-1"/></clipPath><clipPath id="clip-path-3"><rect data-cppathid="10001" height="31.34" width="7.32" y="41.85" x="105.14" class="cls-1"/></clipPath></defs><g data-name="Layer 2" id="Layer_2"><g data-name="Layer 1" id="Layer_1-2"><polygon data-cppathid="10002" points="58.07 58.37 58.07 29.06 71 14.4 71 1.47 81.35 1.47 91.69 1.47 91.69 14.4 104.62 29.06 104.62 58.37 104.62 87.68 91.69 102.33 91.69 115.27 81.35 115.27 71 115.27 71 102.33 58.07 87.68 58.07 58.37" class="cls-2"/><polygon data-cppathid="10003" points="96.87 19.9 100.69 16.07 102.33 17.98 98.51 21.8 96.87 19.9" class="cls-2"/><polyline data-cppathid="10004" points="87.52 1.47 74.05 15.31 69.19 20.59 69.19 95.56 74.34 100.9 87.52 114.41" class="cls-3"/><polyline data-cppathid="10005" points="1.5 58.37 65.98 58.37 65.98 32.06 65.98 58.96 65.98 85.86" class="cls-4"/><g data-name="return spring" id="return_spring"><g class="cls-5"><g class="cls-5"><path data-cppathid="10006" d="M57.53,42.39c.26.56.26,31.5.52,31.09s.26-29.44.53-28.91.26,27.73.52,27.35.26-25.8.52-25.3.26,24.2.52,23.84.26-22.38.52-21.91.26,20.89.52,20.56.26-19.2.52-18.77.27,17.83.53,17.53.26-16.26.52-15.86.26,15,.52,14.72.26-13.56.52-13.18.26,12.4.52,12.15.27-11.08.53-10.74" class="cls-6"/></g></g></g><polygon data-cppathid="10007" points="99.6 30.1 81.35 13.28 70.91 21.64 70.57 94.69 80.39 103.3 99.6 88.6 99.6 30.1" class="cls-7"/><polygon data-cppathid="10008" points="105.69 57.94 105.69 28.63 118.62 13.98 118.62 1.05 128.97 1.05 139.31 1.05 139.31 13.98 152.24 28.63 152.24 57.94 152.24 87.25 139.31 101.91 139.31 114.84 128.97 114.84 118.62 114.84 118.62 101.91 105.69 87.25 105.69 57.94" class="cls-2"/><polygon data-cppathid="10009" points="111.59 13.31 115.29 17.26 113.33 18.83 109.63 14.9 111.59 13.31" class="cls-2"/><polyline data-cppathid="10010" points="135.14 1.05 121.67 14.89 116.81 20.16 116.81 95.13 121.95 100.47 135.14 113.99" class="cls-3"/><polyline data-cppathid="10011" points="71.86 57.94 113.6 57.94 113.6 31.64 113.6 58.54 113.6 85.44" class="cls-4"/><g data-name="return spring" id="return_spring-2"><g class="cls-8"><g class="cls-8"><path data-cppathid="10012" d="M105.15,42c.26.56.26,31.5.52,31.1s.26-29.45.52-28.92.26,27.73.52,27.35.27-25.79.53-25.29.26,24.19.52,23.84.26-22.39.52-21.92.26,20.89.52,20.57.26-19.21.52-18.77.26,17.82.52,17.52.26-16.26.53-15.86.26,15,.52,14.73.26-13.56.52-13.19.26,12.4.52,12.15.26-11.08.53-10.74" class="cls-6"/></g></g></g><path data-cppathid="10013" d="M118.75,30.52c3.16,0,3.16,54,6.32,54s3.17-54,6.33-54,3.16,54,6.33,54,3.17-54,6.33-54,3.17,54,6.34,54" class="cls-9"/><polyline data-cppathid="10014" points="71.86 58.54 71.86 32.23 71.86 59.13 71.86 86.03" class="cls-4"/></g></g></svg>