<?xml version="1.0" encoding="UTF-8"?>
<svg xmlns="http://www.w3.org/2000/svg" onmouseup="{ if(window.parent.document.onmouseup) window.parent.document.onmouseup(arguments[0]);}" viewBox="0 0 73.03 114.79"><defs><style>.cls-1{fill:#bcbec0;}.cls-1,.cls-2,.cls-3{stroke:#231f20;}.cls-1,.cls-2,.cls-3,.cls-4{stroke-miterlimit:10;}.cls-2,.cls-3,.cls-4{fill:none;}.cls-2,.cls-4{stroke-width:3px;}.cls-3{stroke-width:0.25px;}.cls-4{stroke:#f7941d;stroke-linecap:round;}</style></defs><g data-name="Layer 2" id="Layer_2"><g data-name="Layer 1" id="Layer_1-2"><polygon data-cppathid="10000" points="25.98 57.4 25.98 28.09 38.91 13.43 38.91 0.5 49.26 0.5 59.6 0.5 59.6 13.43 72.53 28.09 72.53 57.4 72.53 86.71 59.6 101.36 59.6 114.29 49.26 114.29 38.91 114.29 38.91 101.36 25.98 86.71 25.98 57.4" class="cls-1"/><polygon data-cppathid="10001" points="64.78 18.92 68.6 15.1 70.24 17.01 66.42 20.83 64.78 18.92" class="cls-1"/><polyline data-cppathid="10002" points="55.43 0.5 55.43 13.85 68.89 27.93 68.89 84.27 55.43 98.88 55.43 114.29" class="cls-2"/><path data-cppathid="10003" d="M26,37.78c1.38.56,1.38,31.5,2.77,31.1S30.13,39.43,31.52,40s1.38,27.73,2.77,27.35S35.67,41.52,37.06,42s1.38,24.19,2.77,23.84,1.38-22.39,2.77-21.92S44,64.83,45.37,64.51s1.38-19.21,2.77-18.77,1.38,17.82,2.77,17.52S52.29,47,53.68,47.4s1.39,15,2.77,14.72,1.39-13.55,2.77-13.18S60.61,61.34,62,61.09,63.39,50,64.78,50.35" class="cls-3"/><polyline data-cppathid="10004" points="1.5 55.02 65.98 55.02 65.98 28.71 65.98 55.62 65.98 82.52" class="cls-4"/></g></g></svg>