<?xml version="1.0" encoding="UTF-8"?>
<svg xmlns="http://www.w3.org/2000/svg" onmouseup="{ if(window.parent.document.onmouseup) window.parent.document.onmouseup(arguments[0]);}" viewBox="0 0 87.82 168.79"><defs><style>.cls-1{fill:#231f20;}.cls-1,.cls-2,.cls-3,.cls-4{stroke:#231f20;stroke-miterlimit:10;}.cls-2,.cls-3{fill:#a7a9ac;}.cls-3{stroke-width:2px;}.cls-4{fill:#808285;}</style></defs><g data-name="Layer 2" id="Layer_2"><g data-name="Layer 1" id="Layer_1-2"><path data-cppathid="10000" d="M21.82.87,69.19,64.26a3.36,3.36,0,0,1-4.19,5L41.74,57.59,16.3,9.37Z" class="cls-1"/><polyline data-cppathid="10001" points="42.7 52.62 51.4 75.72 34.78 75.72" class="cls-2"/><line data-cppathid="10002" y2="75.72" x2="87.82" y1="75.72" class="cls-3"/><rect data-cppathid="10003" transform="translate(132.31 46.13) rotate(90)" height="45" width="27" y="66.72" x="29.59" class="cls-4"/><rect data-cppathid="10004" transform="translate(158.96 72.77) rotate(90)" height="45" width="27" y="93.37" x="29.59" class="cls-4"/><rect data-cppathid="10005" transform="translate(181.15 94.97) rotate(90)" height="45" width="27" y="115.56" x="29.59" class="cls-4"/><rect data-cppathid="10006" transform="translate(202.65 117.2) rotate(90)" height="23.74" width="16.73" y="148.06" x="34.36" class="cls-1"/><rect data-cppathid="10007" height="13.87" width="4.97" y="106.7" x="16.3" class="cls-4"/><rect data-cppathid="10008" height="13.87" width="4.97" y="131.12" x="16.3" class="cls-4"/><rect data-cppathid="10009" height="13.87" width="4.97" y="82.11" x="64.91" class="cls-4"/><rect data-cppathid="10010" height="13.87" width="4.97" y="106.7" x="64.91" class="cls-4"/><rect data-cppathid="10011" height="13.87" width="4.97" y="130.71" x="64.91" class="cls-4"/></g></g></svg>