<?xml version="1.0" encoding="UTF-8"?>
<svg xmlns="http://www.w3.org/2000/svg" onmouseup="{ if(window.parent.document.onmouseup) window.parent.document.onmouseup(arguments[0]);}" viewBox="0 0 123.2 115.98" xmlns:xlink="http://www.w3.org/1999/xlink"><defs><style>.cls-1,.cls-12,.cls-3,.cls-4,.cls-7,.cls-8{fill:none;}.cls-2{fill:#bcbec0;}.cls-12,.cls-2,.cls-4,.cls-7,.cls-8{stroke:#231f20;}.cls-12,.cls-2,.cls-3,.cls-4,.cls-7,.cls-8{stroke-miterlimit:10;}.cls-3{stroke:#f7941d;stroke-linecap:round;}.cls-3,.cls-8{stroke-width:3px;}.cls-4{stroke-width:5px;}.cls-5{clip-path:url(#clip-path);}.cls-6{clip-path:url(#clip-path-2);}.cls-7{stroke-width:0.24px;}.cls-9{fill:#00aeef;}.cls-10{clip-path:url(#clip-path-3);}.cls-11{clip-path:url(#clip-path-4);}.cls-12{stroke-width:0.23px;}</style><clipPath id="clip-path"><rect data-cppathid="10000" height="31.34" width="36.13" y="41.73" x="29.85" class="cls-1"/></clipPath><clipPath id="clip-path-2"><rect data-cppathid="10001" height="31.34" width="36.13" y="41.73" x="29.85" class="cls-1"/></clipPath><clipPath id="clip-path-3"><rect data-cppathid="10002" height="31.34" width="31.53" y="41.3" x="75.6" class="cls-1"/></clipPath><clipPath id="clip-path-4"><rect data-cppathid="10003" height="31.34" width="31.53" y="41.3" x="75.6" class="cls-1"/></clipPath></defs><g data-name="Layer 2" id="Layer_2"><g data-name="Layer 1" id="Layer_1-2"><polygon data-cppathid="10004" points="29.6 58.58 29.6 29.27 42.53 14.62 42.53 1.69 52.87 1.69 63.22 1.69 63.22 14.62 76.15 29.27 76.15 58.58 76.15 87.89 63.22 102.55 63.22 115.48 52.87 115.48 42.53 115.48 42.53 102.55 29.6 87.89 29.6 58.58" class="cls-2"/><polygon data-cppathid="10005" points="76.15 57.4 76.15 28.09 89.08 13.43 89.08 0.5 99.42 0.5 109.77 0.5 109.77 13.43 122.7 28.09 122.7 57.4 122.7 86.71 109.77 101.36 109.77 114.29 99.42 114.29 89.08 114.29 89.08 101.36 76.15 86.71 76.15 57.4" class="cls-2"/><polygon data-cppathid="10006" points="82.05 12.77 85.75 16.71 83.78 18.29 80.09 14.35 82.05 12.77" class="cls-2"/><polyline data-cppathid="10007" points="42.31 57.4 109.29 57.4 109.29 31.09 109.29 57.99 109.29 84.89" class="cls-3"/><path data-cppathid="10008" d="M116,30c.48,0,.48,54,1,54s.48-54,1-54,.48,54,1,54,.49-54,1-54,.49,54,1,54" class="cls-4"/><polygon data-cppathid="10009" points="64.79 16.49 68.61 12.66 70.25 14.57 66.43 18.39 64.79 16.49" class="cls-2"/><g data-name="return spring" id="return_spring"><g class="cls-5"><g class="cls-6"><path data-cppathid="10010" d="M29.89,41.84c1.29.56,1.29,31.5,2.58,31.1S33.75,43.49,35,44s1.29,27.73,2.57,27.35,1.29-25.79,2.58-25.29,1.29,24.19,2.57,23.84S44.05,47.53,45.34,48s1.29,20.89,2.57,20.57S49.2,49.36,50.49,49.8s1.29,17.82,2.57,17.52,1.29-16.26,2.58-15.86,1.29,15,2.58,14.73S59.5,52.63,60.79,53s1.29,12.4,2.58,12.15S64.67,54.07,66,54.41" class="cls-7"/></g></g></g><polyline data-cppathid="10011" points="1.5 56.38 65.98 56.38 65.98 30.07 65.98 56.97 65.98 83.87" class="cls-3"/><polyline data-cppathid="10012" points="98.88 1.09 98.88 14.44 112.33 28.52 112.33 84.86 98.88 99.47 98.88 114.89" class="cls-8"/><polyline data-cppathid="10013" points="54.48 1.69 54.48 15.03 67.93 29.12 67.93 85.45 54.48 100.07 54.48 115.48" class="cls-8"/><polygon data-cppathid="10014" points="77.24 84.96 92.35 103.16 107.07 88.12 107.07 26.46 92.22 10.78 78.38 28.58 77.24 84.96" class="cls-9"/><g data-name="return spring" id="return_spring-2"><g class="cls-10"><g class="cls-11"><path data-cppathid="10015" d="M75.64,41.42c1.12.56,1.12,31.5,2.24,31.09S79,43.06,80.13,43.6,81.25,71.33,82.37,71s1.13-25.8,2.25-25.3,1.12,24.2,2.25,23.84S88,47.11,89.11,47.57s1.13,20.9,2.25,20.57,1.13-19.21,2.25-18.77S94.73,67.2,95.86,66.9,97,50.63,98.1,51s1.13,15,2.25,14.72,1.13-13.56,2.25-13.19,1.13,12.41,2.25,12.16S106,53.64,107.11,54" class="cls-12"/></g></g></g></g></g></svg>