<?xml version="1.0" encoding="UTF-8"?>
<svg xmlns="http://www.w3.org/2000/svg" onmouseup="{ if(window.parent.document.onmouseup) window.parent.document.onmouseup(arguments[0]);}" viewBox="0 0 148.6 116.65" xmlns:xlink="http://www.w3.org/1999/xlink"><defs><style>.cls-1,.cls-10,.cls-3,.cls-4,.cls-6,.cls-7{fill:none;}.cls-2{fill:#bcbec0;}.cls-10,.cls-2,.cls-3,.cls-6,.cls-7{stroke:#231f20;}.cls-10,.cls-2,.cls-3,.cls-4,.cls-6,.cls-7{stroke-miterlimit:10;}.cls-3,.cls-4{stroke-width:3px;}.cls-4{stroke:#f7941d;stroke-linecap:round;}.cls-5{clip-path:url(#clip-path);}.cls-6{stroke-width:0.11px;}.cls-7{stroke-width:5px;}.cls-8{clip-path:url(#clip-path-3);}.cls-9{clip-path:url(#clip-path-4);}.cls-10{stroke-width:0.13px;}</style><clipPath id="clip-path"><rect data-cppathid="10000" height="31.34" width="7.32" y="41.85" x="101" class="cls-1"/></clipPath><clipPath id="clip-path-3"><rect data-cppathid="10001" height="31.34" width="10.74" y="42.27" x="55.25" class="cls-1"/></clipPath><clipPath id="clip-path-4"><rect data-cppathid="10002" height="31.34" width="10.74" y="42.28" x="55.25" class="cls-1"/></clipPath></defs><g data-name="Layer 2" id="Layer_2"><g data-name="Layer 1" id="Layer_1-2"><polygon data-cppathid="10003" points="54.99 59.13 54.99 29.82 67.92 15.16 67.92 2.23 78.27 2.23 88.61 2.23 88.61 15.16 101.54 29.82 101.54 59.13 101.54 88.44 88.61 103.09 88.61 116.03 78.27 116.03 67.92 116.03 67.92 103.09 54.99 88.44 54.99 59.13" class="cls-2"/><polygon data-cppathid="10004" points="101.54 57.94 101.54 28.63 114.47 13.98 114.47 1.05 124.82 1.05 135.16 1.05 135.16 13.98 148.1 28.63 148.1 57.94 148.1 87.25 135.16 101.91 135.16 114.84 124.82 114.84 114.47 114.84 114.47 101.91 101.54 87.25 101.54 57.94" class="cls-2"/><polygon data-cppathid="10005" points="107.44 13.31 111.14 17.26 109.18 18.83 105.49 14.9 107.44 13.31" class="cls-2"/><polyline data-cppathid="10006" points="131 1.05 117.52 14.89 112.67 20.16 112.67 95.13 117.81 100.47 131 113.99" class="cls-3"/><polyline data-cppathid="10007" points="67.71 57.94 109.46 57.94 109.46 31.64 109.46 58.54 109.46 85.44" class="cls-4"/><g data-name="return spring" id="return_spring"><g class="cls-5"><g class="cls-5"><path data-cppathid="10008" d="M101,42c.26.56.26,31.5.52,31.1s.26-29.45.52-28.92.26,27.73.52,27.35.26-25.79.52-25.29.26,24.19.52,23.84.26-22.39.52-21.92.26,20.89.53,20.57.26-19.21.52-18.77.26,17.82.52,17.52.26-16.26.52-15.86.26,15,.52,14.73.26-13.56.52-13.19.27,12.4.53,12.15.26-11.08.52-10.74" class="cls-6"/></g></g></g><path data-cppathid="10009" d="M114.6,30.52c3.17,0,3.17,54,6.33,54s3.16-54,6.32-54,3.17,54,6.33,54,3.17-54,6.34-54,3.16,54,6.33,54" class="cls-7"/><polyline data-cppathid="10010" points="67.71 58.54 67.71 32.23 67.71 59.13 67.71 86.03" class="cls-4"/><polygon data-cppathid="10011" points="90.18 17.03 94 13.21 95.64 15.12 91.82 18.94 90.18 17.03" class="cls-2"/><g data-name="return spring" id="return_spring-2"><g class="cls-8"><g class="cls-9"><path data-cppathid="10012" d="M55.26,42.39c.38.56.38,31.5.76,31.09s.39-29.44.77-28.91.38,27.73.76,27.35.39-25.8.77-25.3.38,24.2.76,23.84.39-22.38.77-21.91.38,20.89.76,20.56.39-19.2.77-18.77.38,17.83.76,17.53.39-16.26.77-15.86.38,15,.77,14.72.38-13.56.76-13.18.38,12.4.77,12.15S65.59,54.62,66,55" class="cls-10"/></g></g></g><polyline data-cppathid="10013" points="1.5 58.54 65.98 58.54 65.98 32.23 65.98 59.13 65.98 86.03" class="cls-4"/><polyline data-cppathid="10014" points="88.14 2.66 74.66 16.5 69.81 21.78 69.81 96.74 74.95 102.08 88.14 115.6" class="cls-3"/></g></g></svg>