<?xml version="1.0" encoding="UTF-8"?>
<svg xmlns="http://www.w3.org/2000/svg" onmouseup="{ if(window.parent.document.onmouseup) window.parent.document.onmouseup(arguments[0]);}" viewBox="0 0 148.6 116.65" xmlns:xlink="http://www.w3.org/1999/xlink"><defs><style>.cls-1,.cls-10,.cls-3,.cls-4,.cls-6,.cls-7{fill:none;}.cls-2{fill:#bcbec0;}.cls-10,.cls-2,.cls-3,.cls-6,.cls-7{stroke:#231f20;}.cls-10,.cls-2,.cls-3,.cls-4,.cls-6,.cls-7{stroke-miterlimit:10;}.cls-3,.cls-4{stroke-width:3px;}.cls-4{stroke:#f7941d;stroke-linecap:round;}.cls-5{clip-path:url(#clip-path);}.cls-6{stroke-width:0.11px;}.cls-7{stroke-width:5px;}.cls-8{clip-path:url(#clip-path-3);}.cls-9{clip-path:url(#clip-path-4);}.cls-10{stroke-width:0.13px;}</style><clipPath id="clip-path"><rect data-cppathid="10000" height="31.34" width="7.32" y="43.46" x="101" class="cls-1"/></clipPath><clipPath id="clip-path-3"><rect data-cppathid="10001" height="31.34" width="10.74" y="43.04" x="55.25" class="cls-1"/></clipPath><clipPath id="clip-path-4"><rect data-cppathid="10002" height="31.34" width="10.74" y="43.04" x="55.25" class="cls-1"/></clipPath></defs><g data-name="Layer 2" id="Layer_2"><g data-name="Layer 1" id="Layer_1-2"><polygon data-cppathid="10003" points="54.99 57.52 54.99 86.83 67.92 101.48 67.92 114.41 78.27 114.41 88.61 114.41 88.61 101.48 101.54 86.83 101.54 57.52 101.54 28.21 88.61 13.55 88.61 0.62 78.27 0.62 67.92 0.62 67.92 13.55 54.99 28.21 54.99 57.52" class="cls-2"/><polygon data-cppathid="10004" points="101.54 58.7 101.54 88.02 114.47 102.67 114.47 115.6 124.82 115.6 135.16 115.6 135.16 102.67 148.1 88.02 148.1 58.7 148.1 29.39 135.16 14.74 135.16 1.81 124.82 1.81 114.47 1.81 114.47 14.74 101.54 29.39 101.54 58.7" class="cls-2"/><polygon data-cppathid="10005" points="107.44 103.33 111.14 99.39 109.18 97.81 105.49 101.75 107.44 103.33" class="cls-2"/><polyline data-cppathid="10006" points="131 115.6 117.52 101.76 112.67 96.48 112.67 21.52 117.81 16.18 131 2.66" class="cls-3"/><polyline data-cppathid="10007" points="67.71 58.7 109.46 58.7 109.46 85.01 109.46 58.11 109.46 31.21" class="cls-4"/><g data-name="return spring" id="return_spring"><g class="cls-5"><g class="cls-5"><path data-cppathid="10008" d="M101,74.68c.26-.55.26-31.5.52-31.09s.26,29.45.52,28.91.26-27.73.52-27.35.26,25.8.52,25.3.26-24.19.52-23.84.26,22.39.52,21.92.26-20.9.53-20.57.26,19.21.52,18.77.26-17.83.52-17.53.26,16.27.52,15.86.26-15,.52-14.72.26,13.56.52,13.19.27-12.4.53-12.16.26,11.09.52,10.75" class="cls-6"/></g></g></g><path data-cppathid="10009" d="M114.6,32.13c3.17,0,3.17,54,6.33,54s3.16-54,6.32-54,3.17,54,6.33,54,3.17-54,6.34-54,3.16,54,6.33,54" class="cls-7"/><polyline data-cppathid="10010" points="67.71 58.11 67.71 84.42 67.71 57.52 67.71 30.62" class="cls-4"/><polygon data-cppathid="10011" points="90.18 99.61 94 103.44 95.64 101.53 91.82 97.71 90.18 99.61" class="cls-2"/><g data-name="return spring" id="return_spring-2"><g class="cls-8"><g class="cls-9"><path data-cppathid="10012" d="M55.26,74.26c.38-.56.38-31.5.76-31.09s.39,29.44.77,28.91.38-27.73.76-27.35.39,25.8.77,25.29.38-24.19.76-23.84.39,22.39.77,21.92.38-20.89.76-20.57.39,19.21.77,18.77.38-17.82.76-17.52.39,16.26.77,15.86.38-15,.77-14.72.38,13.55.76,13.18.38-12.4.77-12.15S65.59,62,66,61.69" class="cls-10"/></g></g></g><polyline data-cppathid="10013" points="1.5 58.11 65.98 58.11 65.98 84.42 65.98 57.52 65.98 30.62" class="cls-4"/><polyline data-cppathid="10014" points="88.14 113.99 74.66 100.15 69.81 94.87 69.81 19.9 74.95 14.56 88.14 1.05" class="cls-3"/></g></g></svg>