<?xml version="1.0" encoding="UTF-8"?>
<svg xmlns="http://www.w3.org/2000/svg" onmouseup="{ if(window.parent.document.onmouseup) window.parent.document.onmouseup(arguments[0]);}" viewBox="0 0 123.2 115.98" xmlns:xlink="http://www.w3.org/1999/xlink"><defs><style>.cls-1,.cls-11,.cls-3,.cls-4,.cls-6,.cls-7{fill:none;}.cls-2{fill:#bcbec0;}.cls-11,.cls-2,.cls-4,.cls-6,.cls-7{stroke:#231f20;}.cls-11,.cls-2,.cls-3,.cls-4,.cls-6,.cls-7{stroke-miterlimit:10;}.cls-3{stroke:#f7941d;stroke-linecap:round;}.cls-3,.cls-7{stroke-width:3px;}.cls-4{stroke-width:5px;}.cls-5{clip-path:url(#clip-path);}.cls-6{stroke-width:0.24px;}.cls-8{fill:#00aeef;}.cls-9{clip-path:url(#clip-path-3);}.cls-10{clip-path:url(#clip-path-4);}.cls-11{stroke-width:0.23px;}</style><clipPath id="clip-path"><rect data-cppathid="10000" height="31.34" width="36.13" y="42.92" x="29.85" class="cls-1"/></clipPath><clipPath id="clip-path-3"><rect data-cppathid="10001" height="31.34" width="31.53" y="43.34" x="75.6" class="cls-1"/></clipPath><clipPath id="clip-path-4"><rect data-cppathid="10002" height="31.34" width="31.53" y="43.34" x="75.6" class="cls-1"/></clipPath></defs><g data-name="Layer 2" id="Layer_2"><g data-name="Layer 1" id="Layer_1-2"><polygon data-cppathid="10003" points="29.6 57.4 29.6 86.71 42.53 101.36 42.53 114.29 52.87 114.29 63.22 114.29 63.22 101.36 76.15 86.71 76.15 57.4 76.15 28.09 63.22 13.43 63.22 0.5 52.87 0.5 42.53 0.5 42.53 13.43 29.6 28.09 29.6 57.4" class="cls-2"/><polygon data-cppathid="10004" points="76.15 58.58 76.15 87.89 89.08 102.55 89.08 115.48 99.42 115.48 109.77 115.48 109.77 102.55 122.7 87.89 122.7 58.58 122.7 29.27 109.77 14.62 109.77 1.69 99.42 1.69 89.08 1.69 89.08 14.62 76.15 29.27 76.15 58.58" class="cls-2"/><polygon data-cppathid="10005" points="82.05 103.21 85.75 99.27 83.78 97.69 80.09 101.63 82.05 103.21" class="cls-2"/><polyline data-cppathid="10006" points="42.31 58.58 109.29 58.58 109.29 84.89 109.29 57.99 109.29 31.09" class="cls-3"/><path data-cppathid="10007" d="M116,32c.48,0,.48,54,1,54s.48-54,1-54,.48,54,1,54,.49-54,1-54,.49,54,1,54" class="cls-4"/><polygon data-cppathid="10008" points="64.79 99.49 68.61 103.32 70.25 101.41 66.43 97.59 64.79 99.49" class="cls-2"/><g data-name="return spring" id="return_spring"><g class="cls-5"><g class="cls-5"><path data-cppathid="10009" d="M29.89,74.14c1.29-.56,1.29-31.5,2.58-31.1S33.75,72.49,35,72s1.29-27.73,2.57-27.35S38.9,70.4,40.19,69.9s1.29-24.19,2.57-23.84S44.05,68.45,45.34,68s1.29-20.89,2.57-20.57,1.29,19.21,2.58,18.77,1.29-17.82,2.57-17.52,1.29,16.26,2.58,15.86,1.29-15,2.58-14.73S59.5,63.35,60.79,63s1.29-12.4,2.58-12.15S64.67,61.91,66,61.57" class="cls-6"/></g></g></g><polyline data-cppathid="10010" points="1.5 59.6 65.98 59.6 65.98 85.91 65.98 59.01 65.98 32.11" class="cls-3"/><polyline data-cppathid="10011" points="98.88 114.89 98.88 101.54 112.33 87.45 112.33 31.12 98.88 16.51 98.88 1.09" class="cls-7"/><polyline data-cppathid="10012" points="54.48 114.29 54.48 100.95 67.93 86.86 67.93 30.53 54.48 15.91 54.48 0.5" class="cls-7"/><polygon data-cppathid="10013" points="77.24 31.02 92.35 12.82 107.07 27.86 107.07 89.52 92.22 105.2 78.38 87.4 77.24 31.02" class="cls-8"/><g data-name="return spring" id="return_spring-2"><g class="cls-9"><g class="cls-10"><path data-cppathid="10014" d="M75.64,74.56c1.12-.56,1.12-31.5,2.24-31.09S79,72.92,80.13,72.38,81.25,44.65,82.37,45s1.13,25.8,2.25,25.3,1.12-24.2,2.25-23.84S88,68.87,89.11,68.41s1.13-20.9,2.25-20.57,1.13,19.21,2.25,18.77,1.12-17.83,2.25-17.53S97,65.35,98.1,64.94s1.13-15,2.25-14.72,1.13,13.56,2.25,13.19,1.13-12.41,2.25-12.16S106,62.34,107.11,62" class="cls-11"/></g></g></g></g></g></svg>