<?xml version="1.0" encoding="UTF-8"?>
<svg xmlns="http://www.w3.org/2000/svg" onmouseup="{ if(window.parent.document.onmouseup) window.parent.document.onmouseup(arguments[0]);}" viewBox="0 0 151.62 115.34" xmlns:xlink="http://www.w3.org/1999/xlink"><defs><style>.cls-1,.cls-11,.cls-4,.cls-7,.cls-8,.cls-9{fill:none;}.cls-2{fill:#bcbec0;}.cls-11,.cls-2,.cls-7,.cls-8,.cls-9{stroke:#231f20;}.cls-11,.cls-2,.cls-4,.cls-7,.cls-8,.cls-9{stroke-miterlimit:10;}.cls-3{fill:#00aeef;}.cls-4{stroke:#f7941d;stroke-linecap:round;}.cls-4,.cls-9{stroke-width:3px;}.cls-5{clip-path:url(#clip-path);}.cls-6{clip-path:url(#clip-path-2);}.cls-7{stroke-width:0.22px;}.cls-8{stroke-width:5px;}.cls-10{clip-path:url(#clip-path-3);}.cls-11{stroke-width:0.11px;}</style><clipPath id="clip-path"><rect data-cppathid="10000" height="31.34" width="28.78" y="42.58" x="104.02" class="cls-1"/></clipPath><clipPath id="clip-path-2"><rect data-cppathid="10001" height="31.34" width="28.78" y="42.58" x="104.02" class="cls-1"/></clipPath><clipPath id="clip-path-3"><rect data-cppathid="10002" height="31.34" width="7.32" y="46.15" x="56.45" class="cls-1"/></clipPath></defs><g data-name="Layer 2" id="Layer_2"><g data-name="Layer 1" id="Layer_1-2"><polygon data-cppathid="10003" points="56.95 57.4 56.95 86.71 69.88 101.36 69.88 114.29 80.22 114.29 90.57 114.29 90.57 101.36 103.5 86.71 103.5 57.4 103.5 28.09 90.57 13.43 90.57 0.5 80.22 0.5 69.88 0.5 69.88 13.43 56.95 28.09 56.95 57.4" class="cls-2"/><polygon data-cppathid="10004" points="95.74 95.87 99.57 99.69 101.2 97.78 97.39 93.97 95.74 95.87" class="cls-2"/><polygon data-cppathid="10005" points="104.56 57.82 104.56 87.13 117.5 101.79 117.5 114.72 127.84 114.72 138.19 114.72 138.19 101.79 151.12 87.13 151.12 57.82 151.12 28.51 138.19 13.86 138.19 0.93 127.84 0.93 117.5 0.93 117.5 13.86 104.56 28.51 104.56 57.82" class="cls-2"/><polygon data-cppathid="10006" points="110.46 102.45 114.16 98.51 112.2 96.93 108.51 100.87 110.46 102.45" class="cls-2"/><polygon data-cppathid="10007" points="133.06 89.46 120.93 104.92 105.63 86.92 105.63 29.73 119.27 14.2 133.46 29.73 133.06 89.46" class="cls-3"/><polyline data-cppathid="10008" points="103.5 60.62 135.04 60.62 135.04 86.92 135.04 60.02 135.04 33.12" class="cls-4"/><g data-name="return spring" id="return_spring"><g class="cls-5"><g class="cls-6"><path data-cppathid="10009" d="M104.05,73.8c1-.56,1-31.5,2-31.09s1,29.45,2.05,28.91,1-27.73,2-27.35,1,25.8,2,25.3,1-24.2,2-23.84,1,22.38,2,21.92,1-20.9,2.05-20.57,1,19.21,2,18.77,1-17.83,2-17.53,1,16.27,2.06,15.86,1-15,2-14.72,1,13.56,2,13.19,1-12.41,2.06-12.16,1,11.09,2.05,10.75" class="cls-7"/></g></g></g><path data-cppathid="10010" d="M141,31.25c.83,0,.83,54,1.66,54s.83-54,1.66-54,.83,54,1.66,54,.83-54,1.66-54,.83,54,1.66,54" class="cls-8"/><polyline data-cppathid="10011" points="101.2 57.23 101.2 83.54 101.2 56.64 101.2 29.73" class="cls-4"/><polyline data-cppathid="10012" points="124.85 115.15 124.85 101.8 138.3 87.72 138.3 31.38 124.85 16.77 124.85 1.35" class="cls-9"/><polyline data-cppathid="10013" points="87.4 114.29 73.92 100.45 69.07 95.18 69.07 20.21 74.21 14.87 87.4 1.35" class="cls-9"/><polyline data-cppathid="10014" points="1.5 60.66 65.98 60.66 65.98 86.97 65.98 60.07 65.98 33.17" class="cls-4"/><g data-name="return spring" id="return_spring-2"><g class="cls-10"><g class="cls-10"><path data-cppathid="10015" d="M56.46,77.37c.26-.56.26-31.5.52-31.09s.26,29.44.53,28.91.26-27.73.52-27.35.26,25.8.52,25.3.26-24.2.52-23.84.26,22.38.52,21.91.26-20.89.52-20.56.26,19.2.52,18.77.27-17.83.53-17.53.26,16.26.52,15.86.26-15,.52-14.72.26,13.55.52,13.18.26-12.4.52-12.15.27,11.08.53,10.74" class="cls-11"/></g></g></g><polygon data-cppathid="10016" points="99.88 86.49 81.63 103.31 71.19 94.95 70.85 21.9 80.67 13.29 99.88 27.99 99.88 86.49" class="cls-3"/></g></g></svg>