<?xml version="1.0" encoding="UTF-8"?>
<svg xmlns="http://www.w3.org/2000/svg" onmouseup="{ if(window.parent.document.onmouseup) window.parent.document.onmouseup(arguments[0]);}" viewBox="0 0 151.62 115.34" xmlns:xlink="http://www.w3.org/1999/xlink"><defs><style>.cls-1,.cls-11,.cls-4,.cls-7,.cls-8,.cls-9{fill:none;}.cls-2{fill:#bcbec0;}.cls-11,.cls-2,.cls-7,.cls-8,.cls-9{stroke:#231f20;}.cls-11,.cls-2,.cls-4,.cls-7,.cls-8,.cls-9{stroke-miterlimit:10;}.cls-3{fill:#00aeef;}.cls-4{stroke:#f7941d;stroke-linecap:round;}.cls-4,.cls-9{stroke-width:3px;}.cls-5{clip-path:url(#clip-path);}.cls-6{clip-path:url(#clip-path-2);}.cls-7{stroke-width:0.22px;}.cls-8{stroke-width:5px;}.cls-10{clip-path:url(#clip-path-3);}.cls-11{stroke-width:0.11px;}</style><clipPath id="clip-path"><rect data-cppathid="10000" height="31.34" width="28.78" y="41.42" x="104.02" class="cls-1"/></clipPath><clipPath id="clip-path-2"><rect data-cppathid="10001" height="31.34" width="28.78" y="41.42" x="104.02" class="cls-1"/></clipPath><clipPath id="clip-path-3"><rect data-cppathid="10002" height="31.34" width="7.32" y="37.86" x="56.45" class="cls-1"/></clipPath></defs><g data-name="Layer 2" id="Layer_2"><g data-name="Layer 1" id="Layer_1-2"><polygon data-cppathid="10003" points="56.95 57.94 56.95 28.63 69.88 13.98 69.88 1.05 80.22 1.05 90.57 1.05 90.57 13.98 103.5 28.63 103.5 57.94 103.5 87.25 90.57 101.91 90.57 114.84 80.22 114.84 69.88 114.84 69.88 101.91 56.95 87.25 56.95 57.94" class="cls-2"/><polygon data-cppathid="10004" points="95.74 19.47 99.57 15.65 101.2 17.56 97.39 21.38 95.74 19.47" class="cls-2"/><polygon data-cppathid="10005" points="104.56 57.52 104.56 28.21 117.5 13.55 117.5 0.62 127.84 0.62 138.19 0.62 138.19 13.55 151.12 28.21 151.12 57.52 151.12 86.83 138.19 101.48 138.19 114.41 127.84 114.41 117.5 114.41 117.5 101.48 104.56 86.83 104.56 57.52" class="cls-2"/><polygon data-cppathid="10006" points="110.46 12.89 114.16 16.83 112.2 18.41 108.51 14.47 110.46 12.89" class="cls-2"/><polygon data-cppathid="10007" points="133.06 25.88 120.93 10.42 105.63 28.42 105.63 85.6 119.27 101.14 133.46 85.6 133.06 25.88" class="cls-3"/><polyline data-cppathid="10008" points="103.5 54.73 135.04 54.73 135.04 28.42 135.04 55.32 135.04 82.22" class="cls-4"/><g data-name="return spring" id="return_spring"><g class="cls-5"><g class="cls-6"><path data-cppathid="10009" d="M104.05,41.54c1,.55,1,31.5,2,31.09s1-29.45,2.05-28.91,1,27.73,2,27.35,1-25.8,2-25.3,1,24.19,2,23.84,1-22.39,2-21.92,1,20.9,2.05,20.57,1-19.21,2-18.77,1,17.83,2,17.53,1-16.27,2.06-15.86,1,15,2,14.72,1-13.56,2-13.19,1,12.4,2.06,12.16,1-11.09,2.05-10.75" class="cls-7"/></g></g></g><path data-cppathid="10010" d="M141,30.09c.83,0,.83,54,1.66,54s.83-54,1.66-54,.83,54,1.66,54,.83-54,1.66-54,.83,54,1.66,54" class="cls-8"/><polyline data-cppathid="10011" points="101.2 58.11 101.2 31.8 101.2 58.7 101.2 85.6" class="cls-4"/><polyline data-cppathid="10012" points="124.85 0.19 124.85 13.54 138.3 27.62 138.3 83.96 124.85 98.57 124.85 113.99" class="cls-9"/><polyline data-cppathid="10013" points="87.4 1.05 73.92 14.89 69.07 20.16 69.07 95.13 74.21 100.47 87.4 113.99" class="cls-9"/><polyline data-cppathid="10014" points="1.5 54.68 65.98 54.68 65.98 28.37 65.98 55.27 65.98 82.17" class="cls-4"/><g data-name="return spring" id="return_spring-2"><g class="cls-10"><g class="cls-10"><path data-cppathid="10015" d="M56.46,38c.26.56.26,31.5.52,31.09s.26-29.44.53-28.91.26,27.73.52,27.35.26-25.8.52-25.3.26,24.2.52,23.84.26-22.38.52-21.91.26,20.89.52,20.56.26-19.2.52-18.77.27,17.83.53,17.53.26-16.26.52-15.86.26,15,.52,14.72.26-13.56.52-13.18.26,12.4.52,12.15.27-11.08.53-10.74" class="cls-11"/></g></g></g><polygon data-cppathid="10016" points="99.88 28.85 81.63 12.03 71.19 20.39 70.85 93.44 80.67 102.05 99.88 87.35 99.88 28.85" class="cls-3"/></g></g></svg>